<svg xmlns="http://www.w3.org/2000/svg"><style>:root svg:not(:target){display:none}</style><svg viewBox="0 0 60 60" fill="none" id="advantage-back-1"><defs><clipPath id="advantage-back-1_0"><path transform="translate(15 14)" fill="#fff" fill-opacity="0" d="M0 0h30v32h-30z"></path></clipPath></defs><path fill="#68B738" d="M0 0h60v60h-60z"></path><path d="M15 14h30v32h-30z"></path><g clip-path="url(#advantage-back-1_0)"><path d="M623.43 151.99h24.38v18h-13.13m-7.5 0h-3.75v-14m11.25 14.01-7.5 6v-6" stroke="#FFF" stroke-width="2" stroke-linejoin="round" stroke-linecap="round"></path><path d="M42.84 16.76a.95.95 0 0 0-.91-.76h-.01c-4.94.03-16.94.91-21.79 8.38-2.52 3.87-2.74 8.91-.65 14.96.02.05.05.08.08.12-.75 1.97-1.04 3.29-1.05 3.33-.11.54.22 1.07.72 1.18a.7.7 0 0 0 .2.03c.43 0 .82-.33.91-.79.02-.11 2.41-10.38 10.86-16.38.43-.31.55-.93.26-1.39a.9.9 0 0 0-1.3-.28c-4.79 3.41-7.74 8.01-9.48 11.66-1.24-4.58-.91-8.38.99-11.31 3.74-5.76 12.62-7.15 17.98-7.44-1.15 1.8-2.41 5.1-2.41 10.93 0 3.12-.83 5.52-2.46 7.14-2.63 2.59-6.88 2.83-10 2.58-.52-.05-.96.37-1 .92-.04.55.34 1.03.86 1.07.62.05 1.29.09 1.98.09 3.17 0 6.87-.67 9.43-3.2 2.03-2.01 3.07-4.9 3.07-8.6 0-9.1 3.21-11.1 3.23-11.11.39-.21.59-.68.49-1.13Z" fill="#FFF"></path></g></svg><svg viewBox="0 0 60 60" fill="none" id="advantage-back-2"><path fill="#68B738" d="M0 0h60v60h-60z"></path><path d="M28.37 16c-1.63 0-2.9 1.35-2.9 3.08 0 1.72 1.27 3.08 2.9 3.08s2.9-1.36 2.9-3.08c0-1.73-1.27-3.08-2.9-3.08Zm0 1.17c1 0 1.72.85 1.72 1.91 0 .99-.79 1.9-1.72 1.9-1 0-1.72-.84-1.72-1.9 0-1 .78-1.91 1.72-1.91Zm-10.87 23.57c0 1.17.4 2.17 1.35 2.99 1 .85 2.18.78 2.18.78h19.03a3.4 3.4 0 0 0 2.63-1.45c.84-1 .79-2.36.79-2.36v-17.22c0-.43-.11-.6-.75-.6-.63 0-.68.27-.68.59v17.22a2.5 2.5 0 0 1-.75 1.72c-.73.63-1.45.55-1.45.55s-18.12 0-19.03-.03a2.14 2.14 0 0 1-1.45-.91c-.51-.72-.41-1.63-.41-1.63v-17.22c0-.46-.23-.63-.72-.63s-.74.17-.74.58v17.62Zm16.31-16.32c-1.09.24-2.18.38-4.26 2.36-2.09 1.99-3.63 1.9-5.17 1.81-1.54-.09-3.17-1.54-3.44-1.9-.34-.35-.91-.12-1.09.12-.15.23-.15.64.11.99 1.27 1.18 2.45 2.09 4.71 2.27a7.48 7.48 0 0 0 5.89-2.27c1.45-1.45 2.18-1.72 3.27-1.9a6.3 6.3 0 0 1 5.07 1.27c1 1.09 1.27.78 1.54.47.55-.72-.23-1.27-1.09-1.9a7.22 7.22 0 0 0-5.52-1.27l-.02-.05Zm-9.06 7.16c-1.18 0-2.09 1-2.09 2.27s.91 2.26 2.09 2.26c1.17 0 2.08-.99 2.08-2.26 0-1.27-.91-2.27-2.08-2.27Zm11.78.78c-1.54 0-2.81 1.36-2.81 2.99 0 1.63 1.27 2.99 2.81 2.99s2.81-1.36 2.81-2.99c0-1.63-1.27-2.99-2.81-2.99Zm0 1.45c.79 0 1.45.7 1.45 1.54a1.5 1.5 0 0 1-1.45 1.54c-.8 0-1.45-.69-1.45-1.54 0-.86.65-1.54 1.45-1.54Z" fill="#FFF"></path></svg><svg viewBox="0 0 60 60" fill="none" id="advantage-back-3"><path fill="#68B738" d="M0 0h60v60h-60z"></path><path d="M17.5 15h25v30h-25z"></path><path d="M36.11 15.07a1 1 0 0 1 1.09.22c.91.91 2.1 2.88 3.06 5.92a42.6 42.6 0 0 1 1.74 12.79 1 1 0 0 1-1 1h-3.5v9a1 1 0 0 1-1 1 1 1 0 0 1-1-1v-28a1 1 0 0 1 .61-.93Zm1.39 17.93h2.49a39.57 39.57 0 0 0-1.64-11.19c-.27-.88-.57-1.64-.85-2.3v13.49Zm-18.5-18a1 1 0 0 1 1 1v5.5a2.93 2.93 0 0 0 2.5 2.9v-8.4c0-.56.44-1 1-1a1 1 0 0 1 1 1v8.4a2.93 2.93 0 0 0 2.5-2.9v-5.5c0-.56.44-1 1-1a1 1 0 0 1 1 1v5.5c0 .94-.31 2.18-1.18 3.2a5.08 5.08 0 0 1-3.32 1.73v17.57a1 1 0 0 1-1 1 1 1 0 0 1-1-1v-17.57a5.08 5.08 0 0 1-3.33-1.73 5.02 5.02 0 0 1-1.17-3.2v-5.5c0-.56.44-1 1-1Z" fill="#FFF" fill-rule="evenodd"></path></svg><svg viewBox="0 0 60 60" fill="none" id="advantage-back-4"><path fill="#68B738" d="M0 0h60v60h-60z"></path><path d="M23.12 15c-1.07 0-1.07 1.58 0 1.58h6.66v1.6a13.22 13.22 0 0 0-12.22 13.3c0 4.01 1.75 7.63 4.51 10.07.48.42.54 1.17.11 1.63l-1.54 1.56c-.75.68.36 1.75 1.04 1l2-2.04c.35-.34.88-.42 1.31-.21a12.85 12.85 0 0 0 11.11.06c.42-.21.96-.12 1.3.22l1.94 1.97c.68.63 1.67-.32 1.05-1l-1.45-1.48c-.45-.46-.39-1.2.1-1.64a13.38 13.38 0 0 0 4.61-10.15c0-7.07-5.43-12.88-12.27-13.29v-1.6h6.67c1.07 0 1.07-1.58 0-1.58h-14.93Zm-4.12 16.47a11.7 11.7 0 0 1 11.6-11.82c6.4 0 11.6 5.29 11.6 11.82 0 6.54-5.2 11.84-11.6 11.84-6.4 0-11.6-5.3-11.6-11.84Zm10.79-8.1c0-1.09 1.67-1.09 1.67 0v8.64c0 .22-.09.44-.25.6a.9.9 0 0 1-.61.24.83.83 0 0 1-.57-.23.84.84 0 0 1-.24-.56v-8.69Zm-4.99 2.62a1.15 1.15 0 1 0 0-2.3 1.2 1.2 0 0 0-.75.37c-.19.21-.3.49-.3.78 0 .28.11.56.3.77.2.21.46.34.75.37v.01Zm11.6 0a1.15 1.15 0 1 0 0-2.3c-.29.03-.56.16-.75.37-.2.21-.3.49-.3.78 0 .28.1.56.3.77.19.21.46.34.75.37v.01Zm-10.44 12.59c0 1.53-2.32 1.53-2.32 0s2.32-1.53 2.32 0Zm4.64 3.44c.17.02.33 0 .48-.05.16-.05.3-.13.42-.24a1.19 1.19 0 0 0 .38-.85c0-.16-.04-.32-.1-.47a1.29 1.29 0 0 0-.28-.38 1.27 1.27 0 0 0-.9-.3c-.28.03-.55.16-.75.38a1.14 1.14 0 0 0 .75 1.91Zm-8.11-10.38c.01.16-.01.32-.06.47a1.14 1.14 0 0 1-.63.69c-.15.07-.31.1-.47.1a1.1 1.1 0 0 1-.47-.1 1.14 1.14 0 0 1-.63-.69c-.06-.15-.07-.31-.06-.47a1.17 1.17 0 0 1 2.32 0Zm17.38 1.15c.17.01.33 0 .48-.05.16-.05.3-.14.42-.24.12-.11.21-.24.28-.39.06-.15.1-.31.1-.47 0-.16-.04-.31-.1-.46a1.21 1.21 0 0 0-.28-.39 1.1 1.1 0 0 0-.42-.24c-.15-.05-.31-.07-.48-.05a1.17 1.17 0 0 0-1.05 1.14 1.17 1.17 0 0 0 1.05 1.15Zm-2.31 5.8c0 1.52-2.33 1.52-2.33-.01s2.33-1.53 2.33 0v.01Z" fill="#FFF"></path></svg><svg viewBox="0 0 50 53" fill="none" id="cat-back-1"><defs><clipPath id="cat-back-1_0"><path transform="translate(7)" fill="#fff" fill-opacity="0" d="M0 0h36v50h-36z"></path></clipPath></defs><circle cx="25" cy="28" r="25" fill="#68B738"></circle><path d="M7 0h36v50h-36z"></path><g clip-path="url(#cat-back-1_0)"><path d="M35.2 0h-.2c-.33.18-.59.47-.75.81a7.95 7.95 0 0 0-.66 1.76.87.87 0 0 1-.26.48.86.86 0 0 1-.5.21c-.57.1-1.11.33-1.57.67-.47.33-.85.77-1.12 1.28-.37.66-.69 1.35-.95 2.06-.73 1.9-1.29 3.86-1.98 5.77-.33.87-.34.87-1.32.87-1.17 0-1.09-.18-1.1 1.11 0 .41.12.61.55.59.14 0 .34-.06.39.11.05.18-.12.25-.23.36a4.7 4.7 0 0 1-2.22 1.26c-.98.26-1.98.46-2.93.78-2.44.82-4.7 1.97-6.46 3.91a14.48 14.48 0 0 0-2.44 4.04c-1.88 4.45-2.8 9.14-3.51 13.88a99.44 99.44 0 0 0-.75 6.7c-.09 1.1-.19 2.22-.19 3.35h17.14c.02-.23-.02-.46-.12-.66a2.48 2.48 0 0 0-.78-1.05 2.53 2.53 0 0 0-1.19-.54c-.36-.08-.4-.19-.18-.47.36-.48.64-1.02.82-1.6.83-2.48 1.16-5.07 1.56-7.63.23-1.96.83-3.85 1.77-5.58a11.17 11.17 0 0 1 2.88-3.28c.43-.33.44-.33.51.22.05.37.06.74.09 1.12.15 2.43.12 4.87-.09 7.31-.2 1.88-.22 3.78-.08 5.67.2 2.19.6 4.36 1.17 6.49h6.84a2.81 2.81 0 0 0-2.18-2.29 4.53 4.53 0 0 0-1.94.1c-.31.07-.43 0-.46-.34-.21-2.72-.04-5.47.52-8.15a92.5 92.5 0 0 0 1.57-9.37c.13-1.27.53-2.5 1.17-3.61.61-1.09 1.15-2.23 1.75-3.32a3.06 3.06 0 0 0 .22-2.68c-.14-.37-.28-.74-.45-1.09-.51-1-1.02-2-1.5-3.01-.25-.52-.19-.58.37-.6.84 0 .84 0 .85-.84v-.34c0-.36-.13-.55-.51-.52h-.79c-.35 0-.45-.15-.37-.51a3.22 3.22 0 0 1 2.64-2.29 11.5 11.5 0 0 1 3.41.23c.13.04.27.03.39-.04a.5.5 0 0 0 .25-.29c.21-.52.43-1.03.66-1.55.06-.09.08-.2.07-.3a.5.5 0 0 0-.12-.29c-1.64-2.09-3.43-4.04-5.86-5.3a.76.76 0 0 1-.45-.57c-.14-.74-.36-1.46-.66-2.15a1.74 1.74 0 0 0-.72-.88Z" fill="#000"></path></g></svg><svg viewBox="0 0 268 200" fill="none" id="cat-back-2"><defs><clipPath id="cat-back-2_0"><path transform="translate(0 44)" fill="#fff" fill-opacity="0" d="M0 0h268v112h-268z"></path></clipPath></defs><circle cx="134" cy="100" r="100" fill="#68B738"></circle><path d="M0 44h268v112h-268z"></path><g clip-path="url(#cat-back-2_0)"><path d="M246.23 55.51a30.38 30.38 0 0 1 9-9.2c2-1.4 3.2-1.4 4.4 1.2 1.6 3.8 3 7.8 1.8 12a4.56 4.56 0 0 0 .8 4.2c1.2 1.6 2.2 3.2 3.2 4.6a12.5 12.5 0 0 1 1.8 12.4 10.92 10.92 0 0 0-.4 6.2c.4 1.98.4 4.02 0 6a7.5 7.5 0 0 1-5.4 6.4 10.42 10.42 0 0 0-6.4 4 2 2 0 0 1-.77.73c-.31.18-.67.27-1.03.27-2.4.4-8.4-5-8.4-7.4v-1.2c.2-7.2-.2-7.8-6.8-10.8a8.79 8.79 0 0 1-3.6-2.4c-1.2-1.6-2.8-1.4-4.6-.8-1.8.6-2.8 1.8-2.6 3.8.61 4.84.81 9.72.6 14.6.02.56.15 1.1.4 1.6 6.2 9 8.6 19.6 11.6 29.8 2.4 7.8 6.8 12 14.8 12.6 1.28.1 2.55.3 3.8.6a8.23 8.23 0 0 1 4.38 2.16 8.21 8.21 0 0 1 2.42 4.24c1.4 4.2.6 5.2-3.6 5.2h-13a6.52 6.52 0 0 1-4.6-1.6 23.3 23.3 0 0 0-6.8-4 14.48 14.48 0 0 1-6.8-5.2 57 57 0 0 0-8-9c-5.6-5.8-11.6-11.4-16.8-17.4a22.76 22.76 0 0 1-6.4-15.2c0-1.8-.4-2.6-2.4-1.8-.6.38-1.29.59-2 .6-5.6 0-8.4 3.4-10.4 8.4-1.8 4.2-4.2 8.2-6.4 12.4a20.72 20.72 0 0 0-2 8.4c0 4.8 1.2 6.4 5.6 8 2.8 1 5.4 2 6.8 4.8 1.6 3.2 1.2 4-2.2 4.2h-13.6a3.78 3.78 0 0 1-3.8-2.2l-3.6-6a12.1 12.1 0 0 1-1.4-10.8c.87-3.47.94-7.1.2-10.6a16.86 16.86 0 0 1 3.4-14c1.2-1.4 1.2-2-.8-2.4a100.23 100.23 0 0 1-23.74-8.26.2.2 0 0 1-.06-.14c-6.4-2.4-7.6-2-9.4 4.6-1.6 5.6-3.2 11.2-4.4 17-1.4 6.4.2 12.4 2.2 18.4.8 2.4 3.2 2.2 5 2.8 4 1.2 7.4 2.8 9 7 1.4 3.2 1.2 3.6-2.2 3.6-3.4 0-6.8-.2-10.4 0-3.04.05-6-.93-8.4-2.8-9.6-6.4-12.4-16.2-13.2-26.8-.4-6.6-4-11.8-8.2-16.8-.8-1-1.6-1.4-2.8-.6a88.39 88.39 0 0 1-13.4 6 53.47 53.47 0 0 0-24.4 17.6 21.34 21.34 0 0 0-4.4 10.2c-.6 3.6.4 5.2 4 6.2s5.4 3 5.8 6.8c.2 1.6-.4 2.4-2 2.4h-16.2a3.28 3.28 0 0 1-2.6-1.6c-2.51-3.11-3.86-7-3.8-11-.1-6.91.5-13.81 1.8-20.6a12.68 12.68 0 0 1 6.8-9.6c11.8-5.6 18-16.2 23.6-27.2 1.2-2.2.2-2.6-1.8-2.4-5.6.78-10.9 2.98-15.4 6.4a141.22 141.22 0 0 0-16.6 14.2 33.3 33.3 0 0 1-20.6 9.8c-14.6.8-21.4-7.4-20.8-20.6a19.4 19.4 0 0 1 4.8-12.2 8.45 8.45 0 0 1 9-3c3 .8 3.8 2.4 2.6 5.4-.6 1.2-1.4 2.2-2 3.4a14.84 14.84 0 0 0-2 4c-2.2 6 .8 10.2 7 10.8 6.6.6 12-2.2 17-6.2a89.53 89.53 0 0 0 16-16.6 41.64 41.64 0 0 1 28.8-16.2c4.6-.6 8.6-2.6 13-3.8a83.1 83.1 0 0 1 25.4-3.6 26.1 26.1 0 0 0 11.6-2.2c9.8-4 20-4 30.2-2 8 1.6 16 3.6 23.8 5.6 4.64.86 9.42.73 14-.4a134.92 134.92 0 0 1 26.8-4 36.3 36.3 0 0 1 17.2 3.4c4 1.8 4 1.8 3 5.6Z" fill="#000"></path></g></svg><svg viewBox="0 0 78 80.033" fill="none" id="catalog-gift"><defs><clipPath id="catalog-gift_0"><path fill="#fff" fill-opacity="0" d="M0 0h78v80.03h-78z"></path></clipPath></defs><path d="M0 0h78v80.03h-78z"></path><g clip-path="url(#catalog-gift_0)" fill="#FFF"><path d="M64.01 34.72h-49.98a3.18 3.18 0 0 1-3.19-3.16v-9.47a3.18 3.18 0 0 1 3.19-3.16h49.98a3.18 3.18 0 0 1 3.18 3.16v9.47a3.18 3.18 0 0 1-3.18 3.16Zm-49.98-13.37a.75.75 0 0 0-.75.74v9.47c0 .41.34.74.75.74h49.98c.41 0 .74-.33.74-.74v-9.47c0-.4-.34-.74-.74-.74h-49.98Z"></path><path d="M57.04 67.17h-36.05a6.11 6.11 0 0 1-6.12-6.09v-27.57c0-.67.55-1.21 1.22-1.21.67 0 1.22.54 1.22 1.21v27.57a3.68 3.68 0 0 0 3.68 3.67h36.05a3.69 3.69 0 0 0 3.69-3.67v-27.57c0-.67.54-1.21 1.21-1.21.68 0 1.22.54 1.22 1.21v27.57a6.1 6.1 0 0 1-6.12 6.09Z"></path><path d="M39.02 67.17c-.68 0-1.22-.54-1.22-1.21v-32.45c0-.67.54-1.21 1.22-1.21.67 0 1.22.54 1.22 1.21v32.45c0 .67-.55 1.21-1.22 1.21Zm-15.21-45.82a7.82 7.82 0 1 1 7.49-13.76c5.81 3.13 8.95 11.86 9.08 12.23l-2.3.8c-.03-.08-2.96-8.22-7.94-10.9a5.45 5.45 0 0 0-7.36 2.17 5.38 5.38 0 0 0 2.19 7.32l-1.16 2.14Z"></path><path d="m54.23 21.35-1.16-2.14a5.38 5.38 0 0 0-1.04-9.92 5.4 5.4 0 0 0-4.13.43c-4.98 2.68-7.92 10.82-7.95 10.9l-2.3-.8c.13-.37 3.27-9.1 9.09-12.23a7.81 7.81 0 0 1 5.99-.62 7.77 7.77 0 0 1 5.29 9.73 7.8 7.8 0 0 1-3.79 4.65Zm7.71 29.6h-45.85c-.67 0-1.22-.55-1.22-1.21 0-.67.55-1.22 1.22-1.22h45.85a1.22 1.22 0 1 1 0 2.43Z"></path></g></svg><svg viewBox="0 0 32 12" fill="none" id="icon-arrow-longer"><path stroke="#000" stroke-width="2" d="M0 6h26"></path><path d="m32 6-6.75 5.2v-10.4l6.75 5.2Z" fill="#000"></path></svg><svg viewBox="0 0 24 12" fill="none" id="icon-arrow"><path stroke="#000" stroke-width="2" d="M0 6h18"></path><path d="m24 6-6.75 5.2v-10.4l6.75 5.2Z" fill="#000"></path></svg><svg viewBox="0 0 20 20" fill="none" id="icon-menu-cross"><path transform="matrix(.68659 -.72705 .68659 .72705 2.002 20)" stroke="#000" stroke-width="1.5" d="M0-.75h24.76"></path><path transform="matrix(.68659 .72705 -.68659 .72705 1 2)" stroke="#000" stroke-width="1.5" d="M0-.75h24.76"></path></svg><svg viewBox="0 0 24 24" fill="none" id="icon-menu-lines"><path stroke="#000" stroke-width="2" d="M0 3h24m-24 8h24m-24 8h24"></path></svg><svg viewBox="0 0 27 34" fill="none" id="logo-academy"><clipPath id="logo-academy_0"><path fill="#fff" fill-opacity="0" d="M0 0h27v34h-27z"></path></clipPath><path d="M0 0h27v34h-27z"></path><g clip-path="url(#logo-academy_0)"><path d="m13.64.01-.14-.01-13.5 1.4v24.61l13.5 7.99 13.5-7.99v-24.61l-13.36-1.39Zm11.59 25-11.73 6.94-11.74-6.94v-10.09l11.69 6.92.02 1.25-8.02-4.74-.01 1.23 8.04 4.8.02 1.29-8.04-4.76-.01 1.23 8.05 4.81 8.12-4.84v-5.21l3.62-2.15-.01 10.26Zm0-11.56-3.22 1.88-1.48.87-7.07-4.18-.01 1.22 6.04 3.57-.05.03-.13.08-.86.49-4.99-2.95-.01 1.23 3.94 2.33-.94.61-.02.01-2.97-1.74-.01 1.22 1.95 1.14-1.99 1.18-11.62-6.87 11.64-6.96 11.8 6.84Zm0-1.23-11.79-6.91-11.68 6.9v-9.23l11.74-1.22 11.73 1.22v9.24Z" fill="#666"></path></g></svg><svg viewBox="0 0 128 24" fill="none" id="logo-cat-energy"><path d="M1.62 21.95a9.33 9.33 0 0 1-1.6-5.72v-8.47a9.54 9.54 0 0 1 1.5-5.82c1.1-1.33 2.8-1.94 5.31-1.94 2.5 0 4.1.61 5.1 1.73a7.43 7.43 0 0 1 1.51 5.01v2.04h-4.91v-2.35c.04-.7-.06-1.39-.3-2.04a1.42 1.42 0 0 0-1.4-.82c-.71 0-1.21.2-1.41.71a7.15 7.15 0 0 0-.3 2.25v10.93c-.05.74.09 1.48.4 2.14.2.51.71.72 1.41.72s1.1-.21 1.3-.72c.23-.69.33-1.41.3-2.14v-2.45h4.91v2.04a7.9 7.9 0 0 1-1.51 5.11c-1 1.22-2.7 1.84-5.1 1.84-2.41-.11-4.21-.72-5.21-2.05Zm17.72-21.65h5.71l4.21 23.29h-4.61l-.8-4.91h-3.3l-.81 4.91h-4.7l4.3-23.29Zm4.11 15.32-1.2-9.09-1.2 9.09h2.4Zm9.31-11.44h-3.4v-3.88h11.91v3.78h-3.4v19.51h-5.11v-19.41Zm17.63-3.88h8.81v2.45h-5.71v7.66h4.61v2.35h-4.61v8.58h5.71v2.35h-8.91v-23.39h.1Zm11.41 0h2.21l6.5 15.42v-15.42h2.61v23.29h-2l-6.61-15.94v15.94h-2.71v-23.29Zm14.32 0h8.81v2.45h-5.7v7.66h4.6v2.35h-4.6v8.58h5.7v2.35h-8.81v-23.39Zm11.42 0h4.6a7.89 7.89 0 0 1 5.11 1.43c1.1.92 1.6 2.55 1.6 4.7 0 2.96-.9 4.8-2.8 5.41l3.2 11.64h-3.1l-3-10.92h-2.51v10.92h-3.2v-23.18h.1Zm4.4 10.01c1.04.09 2.07-.2 2.91-.82.6-.51.9-1.53.9-3.06a6.61 6.61 0 0 0-.3-2.25 2.56 2.56 0 0 0-1.1-1.22 4.54 4.54 0 0 0-2.21-.41h-1.4v7.66h1.2v.1Zm10.92 11.54a10.48 10.48 0 0 1-1.4-5.92v-7.76c-.03-1.48.14-2.96.5-4.4.33-1.07 1-2 1.9-2.65 1.12-.68 2.41-1 3.71-.92 2.1 0 3.6.51 4.5 1.63a7.93 7.93 0 0 1 1.41 5.11v.82h-3.01v-.72c.01-.85-.06-1.71-.2-2.55a2.04 2.04 0 0 0-.8-1.33 2.99 2.99 0 0 0-1.9-.51 2.98 2.98 0 0 0-2.01.61 2.41 2.41 0 0 0-.8 1.64c-.13.91-.2 1.83-.2 2.75v8.69a9.51 9.51 0 0 0 .6 3.88c.4.81 1.21 1.12 2.41 1.12a2.37 2.37 0 0 0 2.4-1.23c.53-1.29.77-2.68.7-4.08v-1.63h-2.9v-2.35h5.81v11.54h-2.01l-.3-2.66a4.14 4.14 0 0 1-1.55 2.2c-.74.54-1.64.81-2.55.76a5 5 0 0 1-4.31-2.04Zm17.12-6.43-4.9-15.02h3l3.51 11.24 3.4-11.24h3.01l-4.91 15.02v8.17h-3.01v-8.17h-.1Z" fill="#111"></path></svg><svg viewBox="0 0 19.696 17.07" fill="none" id="logo-telegram"><path d="M19.46.15c.17.15.26.38.22.61l-2.62 15.76a.67.67 0 0 1-.39.49.65.65 0 0 1-.63-.06l-7.87-5.25a.64.64 0 0 1-.15-.95l2.61-3.27-4.36 2.91a.65.65 0 0 1-.66.04l-5.25-2.63a.63.63 0 0 1-.36-.62.64.64 0 0 1 .43-.58l18.38-6.57a.67.67 0 0 1 .65.12Zm-17.14 7.17 3.54 1.77 7.56-5.05a.66.66 0 0 1 .85.11c.22.24.23.6.03.85l-4.81 6.01 6.44 4.29 2.27-13.65-15.88 5.67Z" fill="#666" fill-rule="evenodd"></path></svg><svg viewBox="0 0 26.963 17" fill="none" id="logo-vk"><path d="M0 2.33c0-.85.51-1.31 1.54-1.38l3.97.03c.27 0 .44.12.53.37.41 1.26.87 2.35 1.38 3.26.5.91 1.16 1.97 1.98 3.16.07.15.19.22.35.22.12 0 .22-.06.29-.17l.08-.28.03-4.35c0-.3-.08-.5-.23-.6a1.94 1.94 0 0 0-.84-.23c-.32-.05-.48-.24-.48-.55 0-.07.01-.12.03-.16.37-1.08 1.44-1.63 3.19-1.63l1.5-.02c.67 0 1.23.15 1.68.47.44.32.66.82.66 1.51v5.71c.13.08.24.13.35.13.26 0 .49-.15.69-.46 1.95-2.58 3.01-4.31 3.17-5.18a1.76 1.76 0 0 1 .67-.78c.28-.18.53-.31.74-.37a.47.47 0 0 1 .24-.05h4.13l.27.02c.35 0 .63.16.82.48a1.34 1.34 0 0 1 .2.68l.02.2v.18a6.21 6.21 0 0 1-.95 2.2c-.5.78-1.15 1.62-1.93 2.52-.78.91-1.27 1.5-1.46 1.79-.16.2-.24.38-.24.55 0 .14.07.29.21.45l3.89 4.63c.21.27.32.56.32.88 0 .39-.16.71-.48.96-.32.25-.7.39-1.15.42l-.45.03h-4.05a.6.6 0 0 0-.11.01l-.1.02c-.39 0-.76-.16-1.1-.48l-2.5-2.97a1.34 1.34 0 0 0-.37-.33c-.07.27-.17.66-.28 1.16l-.26 1.08-.08.43c-.17.59-.55.94-1.11 1.05l-.38.03h-2.61c-1.47 0-2.94-.64-4.41-1.91a19.45 19.45 0 0 1-3.95-4.94 46.24 46.24 0 0 1-3.28-7.06 1.86 1.86 0 0 1-.13-.73Zm16.01 6.52c-.38 0-.71-.1-1.01-.29a.89.89 0 0 1-.46-.79v-5.79c0-.33-.09-.57-.26-.71-.18-.15-.49-.22-.94-.22l-1.52.05c-.76 0-1.34.13-1.73.38.78.35 1.18.92 1.18 1.71v4.42c-.04.42-.22.77-.54 1.05-.32.28-.67.41-1.06.41-.54 0-.94-.24-1.23-.73a26.33 26.33 0 0 1-3.09-5.63l-.24-.65-3.54-.03c-.23 0-.36.01-.39.04-.03.02-.04.1-.04.21 0 .15.02.31.05.48l.56 1.41c1.5 3.64 3.12 6.5 4.87 8.6 1.75 2.1 3.46 3.14 5.15 3.14h2.67c.1 0 .18-.03.24-.08a.96.96 0 0 0 .13-.34l.05-.26.51-2.21c.14-.3.26-.5.37-.6.2-.19.43-.28.69-.28.43 0 .87.24 1.31.73l2.26 2.72c.15.21.3.32.46.32h4.39c.54 0 .8-.12.8-.37a.4.4 0 0 0-.08-.25l-3.86-4.56c-.3-.35-.45-.73-.45-1.13 0-.4.14-.79.42-1.16.23-.33.68-.89 1.35-1.67a36.7 36.7 0 0 0 1.74-2.19 6 6 0 0 0 .99-1.84l.08-.33a.32.32 0 0 1-.03-.16.92.92 0 0 0-.02-.19h-4.19c-.26.1-.48.25-.64.45l-.16.48c-.44 1.15-1.6 2.94-3.49 5.35-.37.34-.81.51-1.3.51Z" fill="#666"></path></svg><svg viewBox="0 0 24 18.676" fill="none" id="logo-youtube"><path d="m15.85 8.79-5.24-3.49a.57.57 0 0 0-.33-.11.57.57 0 0 0-.34.08.64.64 0 0 0-.34.57v6.98a.64.64 0 0 0 .34.58.65.65 0 0 0 .67-.03l5.24-3.49a.61.61 0 0 0 .21-.24c.05-.09.08-.2.08-.31a.66.66 0 0 0-.29-.54Zm-4.95 2.81v-4.54l3.41 2.27-3.41 2.27Zm12.48-8.56a2.41 2.41 0 0 0-1.45-1.64c-3.72-1.43-9.68-1.4-9.93-1.4-.26 0-6.22-.03-9.94 1.4a2.41 2.41 0 0 0-1.45 1.64 25 25 0 0 0-.61 6.29c0 3.27.32 5.23.61 6.3a2.3 2.3 0 0 0 1.45 1.63c3.72 1.43 9.68 1.41 9.94 1.41h.07c.75 0 6.32-.04 9.86-1.41a2.3 2.3 0 0 0 1.45-1.63c.29-1.07.62-3.03.62-6.3 0-3.26-.33-5.22-.62-6.29Zm-1.26 12.26a1.1 1.1 0 0 1-.66.74c-3.49 1.34-9.4 1.32-9.46 1.32-.07 0-5.98.02-9.47-1.32a1.1 1.1 0 0 1-.66-.74c-.26-1-.57-2.85-.57-5.97 0-3.12.31-4.96.57-5.96.04-.17.13-.32.24-.45.11-.13.26-.23.42-.3 3.49-1.34 9.4-1.32 9.47-1.32.06 0 5.97-.02 9.46 1.32.16.07.31.17.42.3.11.13.2.28.24.45.26 1 .57 2.84.57 5.96s-.31 4.97-.57 5.97Z" fill="#666"></path></svg><svg viewBox="0 0 24 18" fill="none" id="slider-arrows"><path d="m8 0-8 9 8 9v-18Zm16 9-8-9v18l8-9Z" fill="#666"></path></svg><svg viewBox="0 0 40 512" fill="none" id="slider-tablet"><rect rx="2" width="4" height="512" transform="translate(18)" fill="#666"></rect><path d="m16 247-8 9 8 9v-18Zm16 9-8-9v18l8-9Z" fill="#666" fill-rule="evenodd"></path><rect rx="19" width="38" height="38" transform="translate(1 237)" stroke="#666" stroke-width="2"></rect></svg><svg viewBox="0 0 40 258" fill="none" id="slider"><rect x="1" y="110" width="38" height="38" rx="19" stroke="#666" stroke-width="2"></rect><path d="m16 120-8 9 8 9v-18Zm16 9-8-9v18l8-9Z" fill="#666"></path></svg></svg>