<svg viewBox="0 0 128 24" fill="none" xmlns="http://www.w3.org/2000/svg"><path d="M1.62 21.95a9.33 9.33 0 0 1-1.6-5.72v-8.47a9.54 9.54 0 0 1 1.5-5.82c1.1-1.33 2.8-1.94 5.31-1.94 2.5 0 4.1.61 5.1 1.73a7.43 7.43 0 0 1 1.51 5.01v2.04h-4.91v-2.35c.04-.7-.06-1.39-.3-2.04a1.42 1.42 0 0 0-1.4-.82c-.71 0-1.21.2-1.41.71a7.15 7.15 0 0 0-.3 2.25v10.93c-.05.74.09 1.48.4 2.14.2.51.71.72 1.41.72s1.1-.21 1.3-.72c.23-.69.33-1.41.3-2.14v-2.45h4.91v2.04a7.9 7.9 0 0 1-1.51 5.11c-1 1.22-2.7 1.84-5.1 1.84-2.41-.11-4.21-.72-5.21-2.05Zm17.72-21.65h5.71l4.21 23.29h-4.61l-.8-4.91h-3.3l-.81 4.91h-4.7l4.3-23.29Zm4.11 15.32-1.2-9.09-1.2 9.09h2.4Zm9.31-11.44h-3.4v-3.88h11.91v3.78h-3.4v19.51h-5.11v-19.41Zm17.63-3.88h8.81v2.45h-5.71v7.66h4.61v2.35h-4.61v8.58h5.71v2.35h-8.91v-23.39h.1Zm11.41 0h2.21l6.5 15.42v-15.42h2.61v23.29h-2l-6.61-15.94v15.94h-2.71v-23.29Zm14.32 0h8.81v2.45h-5.7v7.66h4.6v2.35h-4.6v8.58h5.7v2.35h-8.81v-23.39Zm11.42 0h4.6a7.89 7.89 0 0 1 5.11 1.43c1.1.92 1.6 2.55 1.6 4.7 0 2.96-.9 4.8-2.8 5.41l3.2 11.64h-3.1l-3-10.92h-2.51v10.92h-3.2v-23.18h.1Zm4.4 10.01c1.04.09 2.07-.2 2.91-.82.6-.51.9-1.53.9-3.06a6.61 6.61 0 0 0-.3-2.25 2.56 2.56 0 0 0-1.1-1.22 4.54 4.54 0 0 0-2.21-.41h-1.4v7.66h1.2v.1Zm10.92 11.54a10.48 10.48 0 0 1-1.4-5.92v-7.76c-.03-1.48.14-2.96.5-4.4.33-1.07 1-2 1.9-2.65 1.12-.68 2.41-1 3.71-.92 2.1 0 3.6.51 4.5 1.63a7.93 7.93 0 0 1 1.41 5.11v.82h-3.01v-.72c.01-.85-.06-1.71-.2-2.55a2.04 2.04 0 0 0-.8-1.33 2.99 2.99 0 0 0-1.9-.51 2.98 2.98 0 0 0-2.01.61 2.41 2.41 0 0 0-.8 1.64c-.13.91-.2 1.83-.2 2.75v8.69a9.51 9.51 0 0 0 .6 3.88c.4.81 1.21 1.12 2.41 1.12a2.37 2.37 0 0 0 2.4-1.23c.53-1.29.77-2.68.7-4.08v-1.63h-2.9v-2.35h5.81v11.54h-2.01l-.3-2.66a4.14 4.14 0 0 1-1.55 2.2c-.74.54-1.64.81-2.55.76a5 5 0 0 1-4.31-2.04Zm17.12-6.43-4.9-15.02h3l3.51 11.24 3.4-11.24h3.01l-4.91 15.02v8.17h-3.01v-8.17h-.1Z" fill="#111"/></svg>