<svg viewBox="0 0 202 59" fill="none" xmlns="http://www.w3.org/2000/svg"><defs><clipPath id="a"><path fill="#fff" fill-opacity="0" d="M0 0h202v59h-202z"/></clipPath></defs><path d="M0 0h202v59h-202z"/><g clip-path="url(#a)"><path d="M59.74 23.8a25.34 25.34 0 0 0-8.04-10.37 25.42 25.42 0 0 0-12.16-5.02 25.56 25.56 0 0 0-28.68 21.64 25.35 25.35 0 0 0 9.48 23.48 25.6 25.6 0 0 0 12.09 5.19c-.58-2.08-1.17-4.37-1.69-6.8a31.8 31.8 0 0 0 4.75 2.53s.12 2.14.28 4.54c1.79.03 3.57-.13 5.32-.47a2.36 2.36 0 0 1 0-.75c.29-1.86 1.09-5.2 1.25-7.36a14.93 14.93 0 0 0 2.89-3.68l-.06.44c-.55 4.23-1.69 8.74-2.39 9.99-.23.41-.51.8-.83 1.14a25.58 25.58 0 0 0 16.92-13.16 25.35 25.35 0 0 0 .87-21.34Zm-1.47 3.76c-.44.43-1.35.71-1.49-.57-.15-1.29-.19-2.2-.19-2.2s-1.93-3.4-2.65-3.44c-.72-.04-5.81 3.44-7.16 4.96-1.17 1.28-1.4 1.19-1.4 3.44 0 1.7.22 8.11.1 13.01l-8.13 2.15c-2.56.73-5.16 1.3-7.78 1.71l-1-5.79h-.14l-2.56-13.06s-3.81-1.43-5.2-1.82a3.83 3.83 0 0 0-3.99.63 5.08 5.08 0 0 0-1.73 3.82c.21.46.37.94.48 1.44.05.47-1.2.42-2 .42-.79 0-.91-1.43-.29-3.1.5-1.29 1.1-2.53 1.82-3.71a11.72 11.72 0 0 1 2.07-2.87s.14-.34 1.24-.24c1.11.1 7.27.43 7.27.43l.05-2.25c6.69-.92 13.44-1.36 20.19-1.33v1.81a22.57 22.57 0 0 1 8.12-1.98c.15 0 .3.03.44.1.13.06.24.16.33.29.34.42 2.4 2.97 2.64 3.34.67.95 1.28 1.95 1.83 2.98a6.23 6.23 0 0 1-.87 1.82v.01Z" fill="#FDC305"/><path d="m56.33 21.49.99 1.28c.67.95 1.28 1.95 1.83 2.98a6.12 6.12 0 0 1-.86 1.76c-.44.43-1.35.72-1.49-.57-.15-1.29-.21-2.15-.21-2.15s-1.93-3.4-2.65-3.44c-.72-.04-5.81 3.44-7.16 4.96-1.17 1.28-1.4 1.19-1.4 3.44 0 1.49.17 6.6.13 11.14 1.81.2 4.46.7 5.26 1.87 0 0-.29-7.12 7.79-3.4 0 0 .28-9.71 11.44-7.22a43.8 43.8 0 0 0-13.67-10.65Zm-10.51-2.3c.04-5.5-.43-10.99-1.4-16.4 0 0-.15-1.29-.86-.24-.6 1.26-1 2.6-1.2 3.97a70.96 70.96 0 0 0-12.79.34c-.82-2.73-2.22-3.97-2.89-3.64-.66.33-.74 3.25-.74 3.25l-.33 14.05c6.69-.92 13.45-1.37 20.21-1.33Z" fill="#F06351"/><path d="M45.24 46.73c.13-1.06.2-2.47.24-4.02l-8.13 2.15a64.8 64.8 0 0 1-7.78 1.76l1.1 4.96c0 .1 0 .21.07.32a31.8 31.8 0 0 0 4.75 2.53 42.5 42.5 0 0 0 6.87-4.09v.06a15.07 15.07 0 0 0 2.88-3.67Z" fill="#E55645"/><path d="M31.92 16.08c-.05-.1 1 .68 1.41.92.41.23.61.41.61.58 0 .17-.26.34-.62.34s-.92-.12-1-.26c-.08-.14.6 0 .94 0h.29a8.14 8.14 0 0 1-1.63-1.58Zm7.48.11s-.99 1.27-1.08 1.33c-.09.06-.17.34.19.29.41-.06.82-.15 1.21-.28.11-.06.07-.2-.12-.18-.19.02-.67.05-.99.11l.84-1.26s.03-.12-.05-.01Zm-3.13 6.06c.46-.2.85-.55 1.09-.99.28-.65 0-.9-.44-.99-.6-.11-1.23.01-1.75.34-.38.36-.33.72 0 .99.34.26.71.48 1.1.65Z" fill="#000"/><path d="M35.91 23.5c-.11.23-.27.43-.46.6-.28.23-.63.36-.99.38-.55.05-1.1-.11-1.54-.44-.2-.12-.38-.27-.53-.45a.99.99 0 0 0-.36-.24s.75 4.07 2.57 4.73c1.81.65 2.15-.76 2.2-1.13a5.55 5.55 0 0 0-.82-3.22c0-.3-.02-.1-.07-.23Z" fill="#F06351"/><path d="M34.22 24.63a3.55 3.55 0 0 1-2.35-1.41.21.21 0 0 1-.04-.1c0-.04.02-.07.04-.1.02-.02.03-.03.05-.03l.05-.01.06.01.04.03c.25.34.56.63.92.86.36.22.77.37 1.19.44a2.17 2.17 0 0 0 1.63-.99l.14-.19.1.22s.38.75 1 .79c.62.04 1.06-.42 1.63-1.28a.15.15 0 0 1 .09-.06c.04-.01.07 0 .11.02.03.02.05.05.06.09 0 .04 0 .08-.02.11-.67.97-1.3 1.44-1.89 1.4a1.6 1.6 0 0 1-1.12-.73 2.23 2.23 0 0 1-1.69.93Z" fill="#000"/><path d="M39.91 34.27a3.74 3.74 0 0 1-7.48 0 3.73 3.73 0 0 1 3.74-3.72 3.72 3.72 0 0 1 3.74 3.72Z" fill="#FDC305" fill-rule="evenodd"/><path d="m41.13 31.24-3.12 1.3 1.15-5.58-7.49 9.68 3.13-1.3-1.15 5.59 7.48-9.69Zm-7.37 3.8 4.15-5.37-.81 3.97 2-.81-4.19 5.37.81-3.96-1.96.8Z" fill="#111"/><path d="M33.48 32.47c0 .61-.5 1.11-1.12 1.11-.62 0-1.12-.5-1.12-1.11 0-.61.5-1.11 1.12-1.11.62 0 1.12.5 1.12 1.11Zm6.17 4.36c0 .43-.35.78-.78.78a.78.78 0 1 1 0-1.57c.43 0 .78.35.78.79Zm.52-1.72c0 .19-.15.35-.35.35a.35.35 0 0 1-.35-.35c0-.19.16-.35.35-.35.2 0 .35.16.35.35Z" fill="#111" fill-rule="evenodd"/><path d="M45.77 20.98a57.64 57.64 0 0 0-5.08 5.17 30.94 30.94 0 0 1-5.3 4.86c-.22-.52-1.62-1.51-1.62-1.51s-3.14-2.13-5.19-3.8a31.5 31.5 0 0 1-3.13-2.98l-2-.11a22.61 22.61 0 0 0 11.97 8.77c.86-.14 3.28-1.86 5.08-3.25a57.25 57.25 0 0 0 5.99-5.87c.5-.58.88-1.26 1.14-1.98-1.14.38-1.86.7-1.86.7Z" fill="#F06351"/><path d="m65.07 3.47-8.44 9.36-1.22-1.97 8.13-10.86 1.53 3.47Zm-2.57 13.65 5.53-4.08-.78-3.71-5.39 4.77.64 3.02Zm-2.72 31.85 6.11 3.15 3.01-2.32-6.68-2.73-2.44 1.9Zm-57.84-43.05 3.06-3.34 9.27 8.93-1.22 2.26-11.11-7.85Zm5.42 10.22-4.69-3.1-2.4 3.84 5.14 2.38 1.95-3.12Zm6.51 35.98-4.54 3.32 2.8 3.56 4.01-3.99-2.27-2.89Z" fill="#FDC305"/><path d="M25.87 27.77s-3.81-1.43-5.2-1.82a3.83 3.83 0 0 0-3.99.63 5.08 5.08 0 0 0-1.73 3.82c.21.46.37.94.48 1.44.05.47-1.2.42-2 .42-.79 0-.91-1.43-.29-3.1.5-1.29 1.1-2.53 1.82-3.71-5.44 2.82-14.96 9.32-14.96 9.32 2.72-.16 5.46-.08 8.17.24 5.23.53 4.98 4.63 4.98 4.63 1.85-.5 3.72-.87 5.62-1.1 2.12-.14 2.27 2.1 2.27 2.1l.53 3.83a18.4 18.4 0 0 1 2.64-2.34 6.09 6.09 0 0 1 4.37-1.29l-2.71-13.07Z" fill="#F06351"/><path d="M85.42 38.21a7.9 7.9 0 0 1-1.4-5.06v-7.31a8.02 8.02 0 0 1 1.38-5.11c.93-1.16 2.51-1.74 4.76-1.73 2.24 0 3.76.51 4.56 1.53a6.4 6.4 0 0 1 1.33 4.37v1.72h-4.15v-1.86c0-.49-.05-.98-.13-1.47a1.57 1.57 0 0 0-.47-.92 1.57 1.57 0 0 0-.54-.29 1.4 1.4 0 0 0-.61-.07 1.48 1.48 0 0 0-1.51.73 5.37 5.37 0 0 0-.34 2.14v9.28c-.04.74.09 1.47.4 2.15a1.46 1.46 0 0 0 1.45.71 1.37 1.37 0 0 0 1.4-.72c.24-.69.35-1.41.31-2.14v-1.94h4.15v1.68a6.95 6.95 0 0 1-1.23 4.5c-.88 1.07-2.41 1.6-4.57 1.6-2.17 0-3.86-.59-4.79-1.79Zm16.28-18.93h4.75l4.01 20.47h-3.95l-.71-4.52h-3.33l-.8 4.49h-4.01l4.04-20.44Zm3.66 13.37-1.26-8.22-1.26 8.22h2.52Zm8.18-10.29h-3.25v-3.08h10.74v3.08h-3.21v17.36h-4.29l.01-17.36Z" fill="#111"/><path d="M129.46 19.28h8.14v2.12h-5.21v6.76h4.23v2.02h-4.23v7.49h5.26v2.05h-8.19v-20.44Zm10.56 0h2l6.02 13.58v-13.58h2.44v20.47h-1.87l-6.01-13.96v13.93h-2.49l-.09-20.44Zm13.7 0h8.13v2.12h-5.21v6.76h4.27v2.02h-4.23v7.49h5.23v2.05h-8.19v-20.44Zm10.55 0h4.23a7.2 7.2 0 0 1 4.68 1.27c1 .85 1.49 2.24 1.49 4.16 0 2.6-.87 4.19-2.6 4.77l3.01 10.24h-2.84l-2.76-9.59h-2.27v9.59h-2.94v-20.44Zm4.01 8.77c.96.09 1.93-.17 2.7-.74.32-.36.55-.78.69-1.24.15-.45.19-.93.13-1.4a5.4 5.4 0 0 0-.29-1.95 1.8 1.8 0 0 0-1-1.05 4.79 4.79 0 0 0-2.05-.34h-1.29v6.76l1.11-.04Zm10.34 10.16a8.78 8.78 0 0 1-1.27-5.21v-6.83c-.04-1.32.13-2.63.5-3.9a4.4 4.4 0 0 1 1.74-2.35 6.1 6.1 0 0 1 3.37-.82 5.43 5.43 0 0 1 4.19 1.45 6.7 6.7 0 0 1 1.28 4.51v.76h-2.76v-.63c.02-.76-.04-1.52-.18-2.27-.09-.47-.36-.9-.76-1.2a3.12 3.12 0 0 0-1.72-.39 2.57 2.57 0 0 0-1.82.54c-.41.38-.68.89-.77 1.44-.12.81-.18 1.62-.17 2.43v7.6a7.1 7.1 0 0 0 .59 3.37 2.84 2.84 0 0 0 2.26 1.02c.44-.01.86-.11 1.25-.3.38-.2.71-.47.97-.81.48-1.12.69-2.34.61-3.56v-1.44h-2.66v-2.02h5.31v10.12h-1.82l-.29-2.35a3.6 3.6 0 0 1-1.4 1.94c-.68.47-1.5.71-2.33.67a4.65 4.65 0 0 1-4.12-1.77Zm16.05-5.7-4.54-13.23h2.73l3.21 9.86 3.17-9.86h2.76l-4.51 13.23v7.21h-2.81l-.01-7.21Z" fill="#444"/></g></svg>