<svg viewBox="0 0 60 60" fill="none" xmlns="http://www.w3.org/2000/svg"><path fill="#68B738" d="M0 0h60v60h-60z"/><path d="M23.12 15c-1.07 0-1.07 1.58 0 1.58h6.66v1.6a13.22 13.22 0 0 0-12.22 13.3c0 4.01 1.75 7.63 4.51 10.07.48.42.54 1.17.11 1.63l-1.54 1.56c-.75.68.36 1.75 1.04 1l2-2.04c.35-.34.88-.42 1.31-.21a12.85 12.85 0 0 0 11.11.06c.42-.21.96-.12 1.3.22l1.94 1.97c.68.63 1.67-.32 1.05-1l-1.45-1.48c-.45-.46-.39-1.2.1-1.64a13.38 13.38 0 0 0 4.61-10.15c0-7.07-5.43-12.88-12.27-13.29v-1.6h6.67c1.07 0 1.07-1.58 0-1.58h-14.93Zm-4.12 16.47a11.7 11.7 0 0 1 11.6-11.82c6.4 0 11.6 5.29 11.6 11.82 0 6.54-5.2 11.84-11.6 11.84-6.4 0-11.6-5.3-11.6-11.84Zm10.79-8.1c0-1.09 1.67-1.09 1.67 0v8.64c0 .22-.09.44-.25.6a.9.9 0 0 1-.61.24.83.83 0 0 1-.57-.23.84.84 0 0 1-.24-.56v-8.69Zm-4.99 2.62a1.15 1.15 0 1 0 0-2.3 1.2 1.2 0 0 0-.75.37c-.19.21-.3.49-.3.78 0 .28.11.56.3.77.2.21.46.34.75.37v.01Zm11.6 0a1.15 1.15 0 1 0 0-2.3c-.29.03-.56.16-.75.37-.2.21-.3.49-.3.78 0 .28.1.56.3.77.19.21.46.34.75.37v.01Zm-10.44 12.59c0 1.53-2.32 1.53-2.32 0s2.32-1.53 2.32 0Zm4.64 3.44c.17.02.33 0 .48-.05.16-.05.3-.13.42-.24a1.19 1.19 0 0 0 .38-.85c0-.16-.04-.32-.1-.47a1.29 1.29 0 0 0-.28-.38 1.27 1.27 0 0 0-.9-.3c-.28.03-.55.16-.75.38a1.14 1.14 0 0 0 .75 1.91Zm-8.11-10.38c.01.16-.01.32-.06.47a1.14 1.14 0 0 1-.63.69c-.15.07-.31.1-.47.1a1.1 1.1 0 0 1-.47-.1 1.14 1.14 0 0 1-.63-.69c-.06-.15-.07-.31-.06-.47a1.17 1.17 0 0 1 2.32 0Zm17.38 1.15c.17.01.33 0 .48-.05.16-.05.3-.14.42-.24.12-.11.21-.24.28-.39.06-.15.1-.31.1-.47 0-.16-.04-.31-.1-.46a1.21 1.21 0 0 0-.28-.39 1.1 1.1 0 0 0-.42-.24c-.15-.05-.31-.07-.48-.05a1.17 1.17 0 0 0-1.05 1.14 1.17 1.17 0 0 0 1.05 1.15Zm-2.31 5.8c0 1.52-2.33 1.52-2.33-.01s2.33-1.53 2.33 0v.01Z" fill="#FFF"/></svg>