<svg viewBox="0 0 174 50" fill="none" xmlns="http://www.w3.org/2000/svg"><defs><clipPath id="a"><path fill="#fff" fill-opacity="0" d="M0 0h174v50h-174z"/></clipPath></defs><path d="M0 0h174v50h-174z"/><g clip-path="url(#a)"><path d="M51.2 19.05a22.3 22.3 0 0 0-6.88-9.13 21.6 21.6 0 0 0-30.62 4.02 22.65 22.65 0 0 0 3.73 31.26 21.78 21.78 0 0 0 10.37 4.56c-.5-1.83-1-3.84-1.45-5.98 1.3.86 2.66 1.6 4.07 2.22 0 0 .1 1.89.24 3.99 1.53.03 3.06-.11 4.56-.41a1.83 1.83 0 0 1 0-.66c.25-1.63.93-4.57 1.07-6.47.99-.94 1.82-2.03 2.48-3.23l-.05.38c-.47 3.72-1.46 7.69-2.06 8.79-.19.36-.43.7-.7 1a21.79 21.79 0 0 0 8.5-4.16c2.5-2 4.55-4.53 6-7.41a22.78 22.78 0 0 0 .74-18.77Zm-1.25 3.3c-.38.38-1.16.63-1.29-.5a39.52 39.52 0 0 1-.16-1.93s-1.65-2.99-2.27-3.03c-.61-.03-4.98 3.03-6.14 4.36-1 1.13-1.19 1.05-1.19 3.03 0 1.49.19 7.13.08 11.44l-6.97 1.89a54.46 54.46 0 0 1-6.67 1.5l-.85-5.08h-.12l-2.2-11.49s-3.26-1.26-4.46-1.6a3.23 3.23 0 0 0-1.79-.24c-.6.1-1.17.37-1.63.79a4.46 4.46 0 0 0-1.48 3.36c.18.4.32.83.41 1.26.05.42-1.02.38-1.71.38-.68 0-.78-1.26-.24-2.73.42-1.14.94-2.23 1.55-3.27a10.8 10.8 0 0 1 1.77-2.52s.12-.29 1.07-.21c.95.09 6.23.38 6.23.38l.04-1.98a119.4 119.4 0 0 1 17.31-1.17v1.6a18.7 18.7 0 0 1 6.96-1.75c.13 0 .26.03.37.09a.7.7 0 0 1 .29.25c.29.38 2.06 2.62 2.27 2.94.57.84 1.09 1.71 1.56 2.62a5.55 5.55 0 0 1-.74 1.6v.01Z" fill="#FDC305"/><path d="m48.28 17.01.85 1.13c.58.84 1.1 1.71 1.57 2.62a5.4 5.4 0 0 1-.74 1.55c-.37.37-1.15.63-1.28-.51a43.6 43.6 0 0 1-.18-1.88s-1.65-2.99-2.26-3.03c-.62-.03-4.99 3.03-6.15 4.36-1 1.13-1.19 1.05-1.19 3.03 0 1.31.14 5.8.11 9.8 1.55.17 3.82.61 4.51 1.64 0 0-.25-6.27 6.67-2.99 0 0 .24-8.54 9.81-6.35a37.69 37.69 0 0 0-11.72-9.37Zm-9.01-2.02c.04-4.84-.36-9.66-1.19-14.42 0 0-.13-1.14-.75-.21a12.4 12.4 0 0 0-1.02 3.49 60.01 60.01 0 0 0-10.97.29c-.7-2.39-1.9-3.49-2.47-3.2-.57.29-.64 2.86-.64 2.86l-.28 12.36c5.74-.81 11.53-1.2 17.32-1.17Z" fill="#F06351"/><path d="M38.78 39.22c.11-.94.17-2.18.2-3.55l-6.97 1.9a54.18 54.18 0 0 1-6.67 1.54l.95 4.36c0 .1 0 .2.06.29 1.3.86 2.66 1.6 4.07 2.23a36.32 36.32 0 0 0 5.89-3.61v.06a13.6 13.6 0 0 0 2.47-3.22Z" fill="#E55645"/><path d="M27.36 12.26c-.04-.09.86.59 1.21.8.35.21.52.37.52.52 0 .14-.22.29-.53.29-.31 0-.79-.1-.86-.22-.07-.13.52 0 .81 0h.24c-.52-.4-.99-.86-1.39-1.39Zm6.41.09s-.85 1.12-.93 1.17c-.07.06-.14.3.17.26.35-.06.7-.14 1.04-.25.09-.05.06-.17-.1-.16-.17.02-.59.05-.86.1l.73-1.11s.02-.1-.05-.01Zm-2.68 5.33c.4-.17.72-.48.93-.87.24-.57 0-.79-.37-.87-.52-.1-1.06.01-1.5.3-.33.32-.29.63 0 .87.29.23.6.42.94.57Z" fill="#000"/><path d="M30.78 18.78c-.1.2-.23.38-.39.53-.25.2-.54.31-.86.33-.47.05-.94-.09-1.31-.38a1.77 1.77 0 0 1-.46-.4.93.93 0 0 0-.3-.22s.64 3.59 2.19 4.17c1.56.57 1.85-.67 1.89-1a5.02 5.02 0 0 0-.7-2.83c0-.26-.02-.08-.06-.2Z" fill="#F06351"/><path d="M29.33 19.78c-.4-.06-.79-.2-1.13-.42a2.79 2.79 0 0 1-.88-.83c-.02-.02-.03-.05-.03-.09 0-.03.01-.06.03-.08l.04-.03.04-.01.05.01.04.03c.21.3.48.56.79.75.31.2.65.33 1.01.39a1.8 1.8 0 0 0 1.41-.87l.12-.17.08.19s.33.67.86.7c.53.04.9-.37 1.39-1.12a.16.16 0 0 1 .08-.06c.03 0 .06 0 .09.02s.05.05.05.08c.01.03 0 .07-.01.1-.57.85-1.11 1.26-1.62 1.23a1.37 1.37 0 0 1-.96-.64c-.17.24-.38.43-.63.58-.26.14-.54.22-.82.24Z" fill="#000"/><path d="M34.21 28.25a3.23 3.23 0 0 1-3.21 3.27 3.23 3.23 0 0 1-3.2-3.27 3.23 3.23 0 0 1 3.2-3.27 3.23 3.23 0 0 1 3.21 3.27Z" fill="#FDC305" fill-rule="evenodd"/><path d="m35.25 25.59-2.67 1.14.98-4.91-6.41 8.52 2.67-1.15-.98 4.92 6.41-8.52Zm-6.32 3.34 3.56-4.72-.69 3.49 1.71-.71-3.58 4.72.69-3.49-1.69.71Z" fill="#111"/><path d="M28.7 26.67c0 .54-.43.98-.96.98a.97.97 0 0 1-.96-.98c0-.54.43-.98.96-.98s.96.44.96.98Zm5.29 3.83c0 .38-.3.69-.68.69a.68.68 0 0 1-.67-.69c0-.38.3-.69.67-.69.38 0 .68.31.68.69Zm.44-1.51a.3.3 0 0 1-.3.31.31.31 0 0 1-.3-.31c0-.17.14-.3.3-.3.17 0 .3.13.3.3Z" fill="#111" fill-rule="evenodd"/><path d="M39.23 16.57a50.4 50.4 0 0 0-4.35 4.54 27.86 27.86 0 0 1-4.54 4.28c-.19-.46-1.4-1.33-1.4-1.33s-2.68-1.87-4.44-3.35a26.61 26.61 0 0 1-2.69-2.62l-1.71-.09a19.38 19.38 0 0 0 10.26 7.71c.74-.12 2.81-1.63 4.36-2.86a49.99 49.99 0 0 0 5.13-5.16c.42-.51.75-1.1.97-1.74-.97.33-1.59.62-1.59.62Zm-17.06 5.97s-3.26-1.26-4.46-1.6a3.2 3.2 0 0 0-3.42.55 4.43 4.43 0 0 0-1.48 3.36c.19.4.32.83.41 1.26.05.42-1.02.38-1.71.38-.68 0-.78-1.26-.24-2.73.42-1.14.94-2.23 1.55-3.27-4.66 2.48-12.82 8.21-12.82 8.21 2.33-.15 4.68-.08 7 .2 4.49.47 4.27 4.08 4.27 4.08 1.58-.45 3.19-.77 4.82-.97 1.81-.12 1.94 1.85 1.94 1.85l.45 3.37c.69-.76 1.45-1.45 2.27-2.06a5.16 5.16 0 0 1 3.75-1.14l-2.33-11.49Z" fill="#F06351"/><path d="M74.21 32.47a6.87 6.87 0 0 1-1.2-4.34v-6.27a6.92 6.92 0 0 1 1.19-4.38c.79-.99 2.15-1.49 4.07-1.48 1.92 0 3.22.44 3.9 1.31a5.47 5.47 0 0 1 1.14 3.75v1.47h-3.55v-1.6c0-.42-.04-.84-.11-1.25-.04-.3-.18-.58-.4-.79-.14-.12-.29-.2-.46-.25a1.2 1.2 0 0 0-.53-.06c-.25-.04-.51 0-.74.11-.23.11-.42.29-.54.51a4.48 4.48 0 0 0-.3 1.84v7.96a3.9 3.9 0 0 0 .34 1.84 1.3 1.3 0 0 0 1.24.61c.24.03.49-.01.7-.12.22-.11.39-.29.5-.5.21-.59.3-1.21.27-1.83v-1.67h3.55v1.44a5.94 5.94 0 0 1-1.06 3.85c-.75.92-2.05 1.38-3.91 1.38-1.85 0-3.3-.51-4.1-1.53Zm13.94-16.23h4.07l3.43 17.55h-3.38l-.61-3.88h-2.85l-.69 3.85h-3.43l3.46-17.52Zm3.13 11.46-1.08-7.05-1.07 7.05h2.15Zm7-8.82h-2.78v-2.64h9.2v2.64h-2.75v14.88h-3.68l.01-14.88Z" fill="#111"/><path d="M111.91 16.24h6.97v1.82h-4.46v5.79h3.62v1.73h-3.62v6.43h4.5v1.75h-7.01v-17.52Zm9.04 0h1.71l5.15 11.64v-11.64h2.09v17.55h-1.6l-5.15-11.97v11.94h-2.12l-.08-17.52Zm11.72 0h6.97v1.82h-4.46v5.79h3.65v1.73h-3.62v6.43h4.48v1.75h-7.02v-17.52Zm9.03 0h3.62a6.13 6.13 0 0 1 4.01 1.09c.86.73 1.28 1.92 1.28 3.56 0 2.23-.74 3.59-2.22 4.09l2.57 8.78h-2.44l-2.36-8.22h-1.94v8.22h-2.52v-17.52Zm3.44 7.52c.82.08 1.65-.15 2.31-.64a2.92 2.92 0 0 0 .7-2.26 4.73 4.73 0 0 0-.24-1.67 1.7 1.7 0 0 0-.86-.91 4.24 4.24 0 0 0-1.76-.29h-1.11v5.8l.96-.03Zm8.85 8.71a7.58 7.58 0 0 1-1.09-4.47v-5.85c-.03-1.13.11-2.26.43-3.35.24-.81.77-1.52 1.49-2.01a5.18 5.18 0 0 1 2.88-.7 4.69 4.69 0 0 1 3.58 1.23 5.7 5.7 0 0 1 1.1 3.87v.65h-2.36v-.54c.02-.65-.03-1.3-.15-1.94a1.7 1.7 0 0 0-.65-1.03 2.72 2.72 0 0 0-1.48-.34 2.22 2.22 0 0 0-1.55.47c-.36.33-.59.76-.66 1.24-.11.69-.16 1.38-.15 2.08v6.51c-.06.99.11 1.98.51 2.89.23.28.53.5.86.66a2.45 2.45 0 0 0 2.97-.74c.42-.96.6-2 .53-3.05v-1.23h-2.28v-1.73h4.54v8.67h-1.55l-.25-2.01a3.12 3.12 0 0 1-3.2 2.23 4 4 0 0 1-3.52-1.51Zm13.74-4.89-3.89-11.34h2.33l2.76 8.45 2.71-8.45h2.36l-3.86 11.34v6.18h-2.41v-6.18Z" fill="#444"/></g></svg>